 <svg xmlns="http://www.w3.org/2000/svg" xmlns:xlink="http://www.w3.org/1999/xlink" version="1.1" x="0" y="0" width="150.62" height="37.49" viewBox="0 0 150.62 37.49" enable-background="new 0 0 150.62 37.49" xml:space="preserve">
      <path fill="#FFFFFF" d="M22.2 3.24L21.76 3.1l-0.45-0.13 -0.6-0.11 -0.07 0.09 -1.26 1.42c0 0 0.08 0.07 0.16 0.14 -0.01 0.1-0.03 0.2-0.03 0.2l0.35 0.08 0.34 0.11c0 0 0.15 0.05 0.15 0.05l0.21 0.08 0.5 0.16 0.08-0.08 1.89-1.64L22.2 3.24z"/>
      <path fill="#FFFFFF" d="M5.32 23.86l-0.38 0.02 -0.37-0.02 -0.52-0.06 -0.07 0.15 -1 2.44c0 0 0.1 0.04 0.19 0.08 -0.01 0.1-0.03 0.21-0.03 0.21l0.46 0.06 0.48 0.03 0.51-0.01 0.67-0.1 0.02-0.13 0.78-2.81L5.32 23.86z"/>
      <path fill="#FFFFFF" d="M14.09 25.34l-2.81 1.45c0 0 0.05 0.09 0.1 0.19 -0.1 0.02-0.21 0.03-0.21 0.03l0.48 3.02 3.53-1.77L14.09 25.34z"/>
      <path fill="#FFFFFF" d="M27.87 10.86c0 0-0.02-0.3-0.02-0.3l-0.04-0.29c0 0-0.1-0.5-0.1-0.5L27.5 9.83l-2.72 0.62c0 0 0.02 0.1 0.04 0.2 -0.1 0.02-0.21 0.04-0.21 0.04l0.03 0.22 0.02 0.23 0.01 0.23 -0.01 0.23c0 0-0.02 0.23-0.02 0.23l-0.03 0.23 -0.04 0.23c0 0-0.12 0.52-0.12 0.52l0.29-0.02 2.97-0.27 0.09-0.46c0 0 0.04-0.3 0.04-0.3 0 0 0.02-0.3 0.02-0.3 0 0 0.01-0.29 0.01-0.29L27.87 10.86z"/>
      <path fill="#FFFFFF" d="M11.99 32.16l0.58 3.59 4.58-2.21 -1.28-3.45 -3.76 1.86c0 0 0.05 0.09 0.09 0.19C12.09 32.14 11.99 32.16 11.99 32.16zM15.63 30.66c0.13 0.35 0.88 2.36 0.99 2.66 -0.3 0.14-3.3 1.6-3.73 1.8 -0.07-0.44-0.42-2.62-0.46-2.87C12.67 32.13 15.28 30.84 15.63 30.66z"/>
      <polyline fill="#FFFFFF" points="12.2 32.13 15.75 30.37 16.89 33.43 12.73 35.43 12.2 32.13 "/>
      <path fill="#FFFFFF" d="M26.5 6.27l-2.54 1.18c0 0 0.04 0.1 0.09 0.19 -0.1 0.04-0.2 0.08-0.2 0.08l0.66 1.69 2.98-1.01L26.5 6.27z"/>
      <path fill="#FFFFFF" d="M25.2 4.88l-0.36-0.3 -0.39-0.26 -0.52-0.3 -0.11 0.08 -1.86 1.34c0 0 0.06 0.09 0.12 0.17 -0.06 0.09-0.11 0.18-0.11 0.18L22.3 6l0.29 0.21 0.25 0.23 0.31 0.41 0.17-0.08 2.35-1.36L25.2 4.88z"/>
      <path fill="#FFFFFF" d="M18.09 2.81l-0.51 0.04L16.96 2.9l-0.05 0.11 -0.63 1.35c0 0 0.1 0.04 0.19 0.09 0.01 0.1 0.01 0.21 0.01 0.21l1.79-0.1 1.27-1.85L18.09 2.81z"/>
      <path fill="#FFFFFF" d="M14.76 3.41l-0.51 0.16L13.24 3.9c0 0 0.03 0.1 0.06 0.2 -0.1 0-0.21-0.01-0.21-0.01l-0.06 1.45 2.12-0.65 0.48-1.75L14.76 3.41z"/>
      <path fill="#FFFFFF" d="M30.85 4.24l-2.61 1.22c0 0 0.04 0.1 0.09 0.19 -0.09 0.05-0.18 0.1-0.18 0.1l1.1 2.06 3.17-1.07L30.85 4.24z"/>
      <path fill="#FFFFFF" d="M24.26 0.61l-0.61-0.12L22.89 0.4l-0.06 0.08 -1.2 1.36c0 0 0.08 0.07 0.16 0.14 -0.01 0.1-0.02 0.21-0.02 0.21l0.52 0.08 0.5 0.12 0.5 0.14 0.64 0.17L24 2.63 25.87 1 24.26 0.61z"/>
      <path fill="#FFFFFF" d="M15.21 1.33l-0.64 0.22 -0.59 0.21c-0.04 0.01-0.67 0.24-0.67 0.24s0.03 0.1 0.07 0.2c-0.1-0.01-0.21-0.01-0.21-0.01l-0.05 1.35 1.41-0.48 0.57-0.18 0.68-0.21 0.03-0.11 0.42-1.53L15.21 1.33z"/>
      <path fill="#FFFFFF" d="M2.62 23.68l-0.31-0.11L2 23.46l-0.47-0.15 -0.08 0.14L0 25.67c0 0 0.09 0.06 0.17 0.12 -0.03 0.1-0.07 0.2-0.07 0.2l0.35 0.13 0.36 0.15 0.37 0.15 0.57 0.19 0.08-0.16 1.35-2.6L2.62 23.68z"/>
      <path fill="#FFFFFF" d="M9.28 22.94l-0.74 0.25c0 0-0.46 0.18-0.46 0.18L7.66 23.5l-0.39 0.06c0 0 0 0.1 0.01 0.21 -0.1-0.02-0.21-0.03-0.21-0.03l-0.42 2.77 0.25-0.04 0.58-0.09c0 0 0.57-0.17 0.57-0.17l0.56-0.2 0.69-0.21 0.01-0.16L9.28 22.94z"/>
      <path fill="#FFFFFF" d="M12.61 21.38l-2.04 1.1c0 0 0.05 0.09 0.1 0.18 -0.11 0.02-0.21 0.03-0.21 0.03l0.41 2.59 2.67-1.4L12.61 21.38z"/>
      <path fill="#FFFFFF" d="M20.38 17.58l-2.31-0.93 -0.33 0.5 -0.27 0.33c0 0-0.31 0.32-0.31 0.32l-0.34 0.32c0 0 0.07 0.08 0.14 0.15 -0.06 0.09-0.12 0.17-0.12 0.17l1.98 1.38 0.56-0.55 0.41-0.44c0 0 0.38-0.47 0.38-0.47l0.46-0.71L20.38 17.58z"/>
      <path fill="#FFFFFF" d="M22.97 11.31c0 0-0.02-0.21-0.02-0.21l-0.03-0.23 -0.23 0.06 -2.5 0.57 -0.18 0.04 0.03 0.33c0 0 0 0.15 0 0.15l-0.01 0.14c0 0-0.02 0.16-0.02 0.16L20 12.47c0 0-0.03 0.15-0.03 0.15l-0.05 0.16 -0.06 0.16c0 0 0.1 0.03 0.2 0.07 0.01 0.11 0.02 0.21 0.02 0.21l2.67-0.25 0.1-0.36 0.05-0.22 0.04-0.22 0.03-0.22 0.01-0.22v-0.21C22.98 11.53 22.97 11.31 22.97 11.31z"/>
      <path fill="#FFFFFF" d="M21.71 7.48l-0.2-0.3 -0.25-0.25c0 0-0.27-0.22-0.27-0.22l-0.4-0.27 -0.12 0.09L18.6 7.88c0 0 0.06 0.09 0.12 0.17 -0.06 0.09-0.12 0.17-0.12 0.17l0.2 0.15L19 8.53l0.14 0.16c0 0 0.2 0.37 0.2 0.37l0.2-0.08 2.28-1.32L21.71 7.48z"/>
      <path fill="#FFFFFF" d="M15.82 5.37l-0.05 0.12 -0.68 1.47c0 0 0.1 0.04 0.19 0.09 0 0.1 0 0.21 0 0.21l0.52 0 0.28 0 0.39-0.02 0.05-0.09 1.26-1.85L15.82 5.37z"/>
      <path fill="#FFFFFF" d="M13.16 6.03c0 0 0.03 0.1 0.06 0.2 -0.11 0-0.21-0.01-0.21-0.01L12.94 7.8l0.56-0.14 0.29-0.08c0.03-0.01 0.29-0.09 0.29-0.09l0.39-0.11 0.04-0.11 0.49-1.77L13.16 6.03z"/>
      <path fill="#FFFFFF" d="M9.31 27.46l-0.92 0.27 -0.64 0.22 -0.61 0.18 -0.58 0.08c0 0 0.01 0.1 0.01 0.21 -0.1-0.02-0.21-0.03-0.21-0.03l-0.48 3.17 0.25-0.03 0.76-0.09 0.77-0.2L8.41 31c0 0 0.9-0.25 0.9-0.25l0.01-0.16L9.31 27.46z"/>
      <path fill="#FFFFFF" d="M18.62 22.17l-0.15 0.11 -2.42 1.8c0 0 0.07 0.08 0.13 0.17 -0.09 0.05-0.18 0.11-0.18 0.11l1.47 2.47 3.24-2.43L18.62 22.17z"/>
      <path fill="#FFFFFF" d="M24.76 19.35l-2.68-1.08 -0.45 0.71 -0.42 0.53c0 0-0.47 0.52-0.47 0.52 0 0-0.5 0.51-0.5 0.51s0.07 0.07 0.15 0.15c-0.06 0.09-0.12 0.17-0.12 0.17l2.32 1.62 0.73-0.77 0.57-0.66c0 0 0.52-0.69 0.52-0.69L25 19.44 24.76 19.35z"/>
      <path fill="#FFFFFF" d="M24.2 14.19l-0.06 0.14 -0.92 2.21c0 0 0.1 0.04 0.19 0.08 -0.02 0.1-0.04 0.21-0.04 0.21l2.9 0.61 1.19-3.12L24.2 14.19z"/>
      <path fill="#FFFFFF" d="M11.99 5.86l-0.26-1.31L11 4.93l-0.48 0.27 -0.47 0.28L9.58 5.75c0 0 0.06 0.09 0.11 0.18C9.59 5.99 9.5 6.04 9.5 6.04l0.58 1.06 0.59-0.34 0.4-0.23 0.4-0.23 0.54-0.28L11.99 5.86z"/>
      <path fill="#FFFFFF" d="M9.34 32.81l-1.13 0.3 -0.86 0.25 -0.82 0.19 -0.78 0.08c0 0 0 0.11 0 0.21 -0.1-0.02-0.21-0.03-0.21-0.03l-0.56 3.68 0.24-0.02 0.98-0.07 1-0.21 0.71-0.19 0.29-0.08 1.16-0.27 0.01-0.17L9.34 32.81z"/>
      <path fill="#FFFFFF" d="M22.01 25.77l-0.15 0.11 -3.26 2.46c0 0 0.06 0.08 0.13 0.17 -0.09 0.05-0.18 0.11-0.18 0.11l1.77 2.95 4.17-3.17L22.01 25.77z"/>
      <path fill="#FFFFFF" d="M29.43 14.38l-0.05 0.15 -1.09 3.1c0 0 0.1 0.04 0.2 0.07 -0.02 0.1-0.04 0.21-0.04 0.21l3.37 0.72 1.27-4.1L29.43 14.38z"/>
      <path fill="#FFFFFF" d="M19.46 5.8l-0.19-0.08 -0.09-0.04 -0.3-0.11 -0.47-0.12 -0.07 0.1 -1.33 1.49c0 0 0.08 0.07 0.16 0.14 -0.02 0.11-0.04 0.21-0.04 0.21l0.19 0.06 0.19 0.09c0 0 0.21 0.1 0.21 0.1l0.37 0.14 0.08-0.09 1.92-1.66L19.46 5.8z"/>
      <path fill="#FFFFFF" d="M19.53 14.14l-0.68 1.44c0 0 0.1 0.05 0.19 0.09 -0.02 0.1-0.05 0.21-0.05 0.21l2.51 0.54 1.02-2.3 -2.94-0.11L19.53 14.14z"/>
      <path fill="#FFFFFF" d="M15.64 19.28l-1.72 1.26c0 0 0.06 0.08 0.12 0.17 -0.09 0.06-0.18 0.11-0.18 0.11l1.25 2.09 2.47-1.83 -1.8-1.91L15.64 19.28z"/>
      <path fill="#FFFFFF" d="M19.84 9.37c0 0 0.04 0.1 0.09 0.19 -0.1 0.03-0.2 0.05-0.2 0.05l0.34 1.3 2.83-0.96 -0.58-1.74L19.84 9.37z"/>
      <path fill="#FFFFFF" d="M12.12 6.47l-0.6 0.31 -0.35 0.2 -0.34 0.2 -0.34 0.19c0 0 0.05 0.09 0.1 0.18 -0.09 0.05-0.19 0.1-0.19 0.1l0.65 1.16 0.46-0.24 0.27-0.15 0.26-0.15 0.4-0.2L12.4 7.9 12.12 6.47z"/>
      <path fill="#FFFFFF" d="M3.37 28.49l-0.51-0.05 -0.67-0.11 -0.07 0.15 -1.14 2.77c0 0 0.1 0.04 0.19 0.08 -0.02 0.11-0.04 0.21-0.04 0.21l0.6 0.12 0.62 0.08 0.67 0.02 0.85-0.07 0.02-0.14 0.88-3.17L3.9 28.49 3.37 28.49z"/>
      <path fill="#FFFFFF" d="M26.81 20.17l-0.58 0.96 -0.57 0.77 -0.64 0.75 -0.69 0.74c0 0 0.08 0.07 0.15 0.15 -0.06 0.09-0.12 0.17-0.12 0.17l2.77 1.93 0.94-1.04 0.75-0.92c0 0 0.67-0.95 0.67-0.95l0.7-1.2 -0.23-0.08L26.81 20.17z"/>
      <path fill="#FFFFFF" d="M33.33 10.65l-0.03-0.38 -0.05-0.39 -0.07-0.38L33.1 9.14l-0.16-0.55 -0.19 0.05 -2.96 0.67c0 0 0.02 0.1 0.04 0.21 -0.1 0.03-0.2 0.05-0.2 0.05l0.07 0.3c0 0 0.05 0.3 0.05 0.3l0.04 0.31 0.02 0.32 0 0.31 -0.01 0.31 -0.03 0.32c0 0-0.05 0.32-0.05 0.32l-0.04 0.26 0.26-0.02L33.28 12l0.04-0.57 0.01-0.39L33.33 10.65z"/>
      <path fill="#FFFFFF" d="M25.33 3.4l0.45 0.24 0.42 0.25 0.38 0.28 0.44 0.43 0.15-0.07 2.42-1.4 -0.67-0.58 -0.5-0.33L27.9 1.94l-0.65-0.31 -0.1 0.07 -1.84 1.33c0 0 0.06 0.09 0.12 0.17C25.38 3.3 25.33 3.4 25.33 3.4z"/>
      <path fill="#FFFFFF" d="M17.61 2.27l0.56-0.06 0.57-0.05 0.57-0.04 0.68-0.05 1.21-1.77 -1.11 0.1 -0.66 0.06 -0.65 0.07 -0.76 0.1 -0.05 0.1 -0.58 1.24c0 0 0.09 0.05 0.19 0.09C17.6 2.16 17.61 2.27 17.61 2.27z"/>
      <path fill="#FFFFFF" d="M40.46 12.21h3.98c1.86 0.07 3.17 0.65 3.93 1.75 0.76 1.1 1.12 2.31 1.1 3.64 0.03 1.23-0.34 2.41-1.09 3.53s-2.04 1.72-3.87 1.8h-4.05V12.21zM42.53 21.13h1.68c1.25-0.04 2.09-0.42 2.53-1.15 0.44-0.72 0.64-1.54 0.61-2.44 0.01-0.97-0.26-1.79-0.81-2.47 -0.55-0.68-1.43-1.03-2.63-1.06h-1.37V21.13z"/>
      <path fill="#FFFFFF" d="M50.26 18.87c0-0.99 0.34-1.93 1.03-2.83 0.69-0.89 1.72-1.37 3.11-1.43 0.55-0.01 1.05 0.09 1.49 0.28 0.45 0.2 0.83 0.51 1.15 0.93v-0.97h1.8v8.1h-1.8v-1.01c-0.22 0.4-0.53 0.69-0.95 0.89 -0.42 0.2-0.97 0.3-1.66 0.31 -1.36-0.06-2.39-0.52-3.1-1.39C50.63 20.9 50.27 19.93 50.26 18.87zM56.84 18.81c-0.01-0.53-0.21-1.05-0.61-1.55 -0.4-0.49-0.98-0.76-1.73-0.79 -0.72 0.03-1.28 0.29-1.69 0.78 -0.41 0.48-0.62 0.99-0.62 1.51 0 0.58 0.19 1.14 0.58 1.67 0.39 0.53 0.97 0.82 1.76 0.85 0.74-0.03 1.31-0.29 1.71-0.79C56.63 20 56.83 19.44 56.84 18.81z"/>
      <path fill="#FFFFFF" d="M61.11 22.93V16.5h-1.25v-1.64h1.25v-2.65h1.85v2.65h1.25v1.64h-1.25v6.43H61.11z"/>
      <path fill="#FFFFFF" d="M72.27 22.93h-1.83v-0.89c-0.21 0.34-0.51 0.6-0.9 0.8 -0.39 0.2-0.85 0.3-1.38 0.31 -1.04-0.04-1.82-0.37-2.33-1 -0.5-0.63-0.75-1.35-0.75-2.17v-5.11h1.83v4.35c-0.01 0.58 0.11 1.09 0.37 1.51 0.25 0.42 0.71 0.64 1.37 0.66 0.67-0.03 1.14-0.29 1.41-0.77 0.26-0.48 0.39-1.02 0.38-1.6v-4.14h1.83V22.93z"/>
      <path fill="#FFFFFF" d="M73.98 14.92h1.79v0.88c0.26-0.33 0.59-0.59 0.97-0.8 0.38-0.21 0.81-0.31 1.28-0.32 0.52 0.01 1.03 0.14 1.53 0.4 0.5 0.26 0.9 0.62 1.21 1.06 0.24-0.4 0.59-0.74 1.04-1.02 0.45-0.28 0.94-0.43 1.46-0.45 0.95 0.04 1.68 0.37 2.2 1 0.52 0.63 0.77 1.35 0.78 2.17v5.09h-1.85v-4.3c0.01-0.58-0.1-1.08-0.34-1.5 -0.24-0.42-0.69-0.64-1.34-0.66 -0.6 0.03-1.04 0.28-1.31 0.75 -0.27 0.47-0.4 0.97-0.39 1.5v4.21h-1.86v-4.3c0.01-0.6-0.1-1.11-0.35-1.52 -0.24-0.41-0.68-0.62-1.33-0.64 -0.62 0.03-1.06 0.28-1.32 0.77 -0.26 0.48-0.39 1.02-0.39 1.6v4.09h-1.79V14.92z"/>
      <path fill="#FFFFFF" d="M87.49 19.88h1.01c0.01 0.52 0.16 1 0.46 1.46 0.31 0.46 0.82 0.7 1.54 0.73 0.64-0.02 1.14-0.23 1.48-0.64 0.34-0.41 0.52-0.94 0.52-1.58 -0.03-0.75-0.28-1.27-0.75-1.56 -0.47-0.29-1.01-0.53-1.63-0.7 -0.61-0.17-1.16-0.44-1.63-0.81 -0.47-0.37-0.72-1-0.74-1.89 -0.01-0.67 0.22-1.31 0.69-1.92 0.46-0.61 1.19-0.94 2.17-0.98 0.9 0.03 1.57 0.31 2.02 0.87 0.45 0.56 0.68 1.21 0.69 1.96h-0.97c-0.02-0.45-0.17-0.85-0.44-1.23 -0.27-0.37-0.7-0.57-1.29-0.6 -0.61 0.02-1.07 0.23-1.37 0.61 -0.3 0.38-0.46 0.8-0.46 1.25 0.02 0.61 0.27 1.05 0.74 1.31 0.47 0.26 1.02 0.48 1.63 0.66 0.62 0.18 1.17 0.46 1.64 0.86 0.48 0.39 0.73 1.04 0.77 1.95 0.01 0.89-0.23 1.68-0.73 2.37 -0.5 0.69-1.31 1.06-2.43 1.1 -0.99-0.05-1.73-0.4-2.21-1.06C87.73 21.39 87.49 20.67 87.49 19.88z"/>
      <path fill="#FFFFFF" d="M98.75 14.62c1.3 0.06 2.32 0.53 3.04 1.41 0.72 0.88 1.09 1.82 1.1 2.82 -0.01 1.08-0.38 2.05-1.11 2.92 -0.73 0.87-1.77 1.33-3.12 1.39 -1.4-0.07-2.44-0.56-3.12-1.48 -0.68-0.92-1.02-1.86-1.02-2.82 0.01-1.04 0.39-1.99 1.13-2.85C96.4 15.13 97.43 14.67 98.75 14.62zM95.59 18.84c0 0.86 0.27 1.62 0.79 2.29 0.52 0.67 1.27 1.02 2.25 1.06 0.99-0.03 1.77-0.36 2.34-1s0.85-1.4 0.86-2.29c0-0.87-0.28-1.63-0.82-2.28 -0.54-0.65-1.31-0.99-2.29-1.03 -0.98 0.04-1.75 0.38-2.29 1.03C95.88 17.28 95.6 18.02 95.59 18.84z"/>
      <path fill="#FFFFFF" d="M104.14 12.21h1.01v10.72h-1.01V12.21z"/>
      <path fill="#FFFFFF" d="M106.81 19.91v-5.04h1v4.96c-0.01 0.63 0.17 1.18 0.53 1.65 0.36 0.46 0.96 0.71 1.79 0.73 0.9-0.03 1.54-0.31 1.92-0.84 0.38-0.53 0.56-1.14 0.55-1.84v-4.65h1v8.07h-1v-0.92c-0.23 0.34-0.54 0.62-0.94 0.82 -0.4 0.2-0.9 0.31-1.5 0.32 -1.05-0.03-1.87-0.35-2.45-0.95C107.12 21.59 106.82 20.83 106.81 19.91z"/>
      <path fill="#FFFFFF" d="M116.01 22.93v-7.04h-1.55v-1.03h1.55v-2.65h1v2.65h1.55v1.03h-1.55v7.04H116.01z"/>
      <path fill="#FFFFFF" d="M120.42 12.21v1.64h-1v-1.64H120.42zM119.42 14.86h1v8.07h-1V14.86z"/>
      <path fill="#FFFFFF" d="M125.89 14.62c1.3 0.06 2.32 0.53 3.04 1.41 0.72 0.88 1.09 1.82 1.1 2.82 -0.01 1.08-0.38 2.05-1.11 2.92 -0.73 0.87-1.77 1.33-3.12 1.39 -1.4-0.07-2.44-0.56-3.12-1.48 -0.69-0.92-1.02-1.86-1.02-2.82 0.01-1.04 0.39-1.99 1.14-2.85C123.54 15.13 124.57 14.67 125.89 14.62zM122.73 18.84c0.01 0.86 0.27 1.62 0.79 2.29 0.52 0.67 1.27 1.02 2.25 1.06 1-0.03 1.78-0.36 2.34-1s0.85-1.4 0.86-2.29c-0.01-0.87-0.28-1.63-0.82-2.28 -0.54-0.65-1.3-0.99-2.29-1.03 -0.98 0.04-1.75 0.38-2.29 1.03C123.02 17.28 122.74 18.02 122.73 18.84z"/>
      <path fill="#FFFFFF" d="M138.07 22.93h-1.01v-4.94c0.01-0.6-0.16-1.13-0.5-1.6 -0.35-0.47-0.94-0.72-1.78-0.74 -0.9 0.02-1.54 0.3-1.93 0.82 -0.38 0.52-0.57 1.13-0.56 1.82v4.64h-1v-8.01h1v0.91c0.23-0.33 0.6-0.6 1.09-0.82 0.49-0.22 1-0.33 1.53-0.34 0.98 0.02 1.75 0.33 2.31 0.94s0.84 1.37 0.85 2.29V22.93z"/>
      <path fill="#FFFFFF" d="M139.23 20.4h1.06c0 0.46 0.12 0.87 0.36 1.23 0.25 0.36 0.63 0.55 1.16 0.57 0.49-0.01 0.85-0.16 1.09-0.45 0.25-0.29 0.37-0.6 0.37-0.96 -0.02-0.53-0.21-0.92-0.59-1.14 -0.37-0.23-0.79-0.42-1.27-0.56 -0.48-0.15-0.9-0.38-1.26-0.69 -0.37-0.31-0.55-0.82-0.56-1.53 0-0.53 0.2-1.04 0.59-1.5 0.39-0.47 0.99-0.72 1.79-0.75 0.71 0 1.27 0.2 1.68 0.59 0.41 0.39 0.62 0.92 0.63 1.6h-1.13c0-0.34-0.11-0.63-0.33-0.86 -0.22-0.23-0.54-0.35-0.95-0.36 -0.37 0.02-0.67 0.15-0.88 0.39 -0.22 0.25-0.33 0.52-0.33 0.83 0.02 0.48 0.21 0.83 0.58 1.02 0.37 0.2 0.8 0.37 1.29 0.51 0.49 0.14 0.92 0.38 1.29 0.72 0.37 0.34 0.57 0.9 0.59 1.67 0 0.65-0.24 1.21-0.69 1.67 -0.46 0.47-1.1 0.71-1.93 0.74 -0.88-0.04-1.53-0.34-1.94-0.9C139.43 21.69 139.22 21.07 139.23 20.4z"/>

    <path fill="#FFFFFF" d="M146.54 15.12v2.69h-0.3v-2.69h-0.68v-0.27h1.65v0.27H146.54z"/>
    <path fill="#FFFFFF" d="M150.32 17.81v-2.63l-1.11 2.63h-0.26l-1.11-2.63v2.63h-0.3v-2.96h0.46l1.08 2.52 1.07-2.52h0.46v2.96H150.32z"/>

</svg>